<?xml version="1.0" standalone="no"?>
<!DOCTYPE svg PUBLIC "-//W3C//DTD SVG 20010904//EN"
 "http://www.w3.org/TR/2001/REC-SVG-20010904/DTD/svg10.dtd">
<svg version="1.0" xmlns="http://www.w3.org/2000/svg"
 width="1512.000000pt" height="1134.000000pt" viewBox="0 0 1512.000000 1134.000000"
 preserveAspectRatio="xMidYMid meet">

<g transform="translate(0.000000,1134.000000) scale(0.100000,-0.100000)"
fill="#000000" stroke="none">
<path d="M850 8929 c0 -6 30 -90 66 -187 246 -657 523 -1137 863 -1495 103
-108 255 -240 368 -320 94 -66 262 -167 278 -167 6 0 19 17 30 37 31 58 135
157 196 186 29 14 77 29 105 33 92 11 228 -37 345 -122 55 -41 60 -48 54 -72
-4 -15 -8 -28 -10 -30 -2 -2 -27 15 -56 37 -30 23 -85 58 -124 78 -60 32 -82
37 -151 41 -49 3 -96 0 -118 -8 -52 -17 -153 -115 -201 -194 -22 -36 -44 -66
-49 -66 -33 0 -320 183 -448 286 l-81 66 -151 19 c-173 23 -484 71 -600 93
-44 9 -82 14 -84 11 -6 -6 117 -237 184 -345 131 -212 310 -420 479 -558 44
-35 85 -66 91 -69 7 -2 34 19 60 47 52 55 108 88 189 111 55 15 362 20 425 6
24 -5 60 -29 107 -72 l72 -65 198 138 c109 77 199 138 201 137 2 -2 0 -19 -4
-39 -6 -35 -27 -51 -503 -383 -273 -191 -506 -354 -518 -364 -23 -17 -19 -20
498 -424 286 -225 529 -415 540 -424 20 -16 20 -21 -71 -580 -50 -310 -89
-565 -87 -567 1 -2 315 6 697 16 382 11 707 20 722 20 25 0 26 3 33 63 11 106
-6 97 183 97 l167 0 -108 -108 -108 -109 191 -236 191 -237 253 0 253 0 103
-217 c57 -120 106 -221 110 -226 3 -4 156 61 338 145 l331 152 -43 60 c-64 91
-63 86 -12 86 l45 0 107 -157 c58 -87 109 -161 113 -165 3 -4 56 -12 116 -18
279 -30 494 -123 668 -289 43 -41 98 -101 121 -132 l44 -58 26 39 c14 22 56
71 92 110 187 198 424 303 756 335 l68 7 112 164 112 164 43 0 c33 0 42 -3 37
-12 -4 -7 -25 -39 -47 -71 -21 -32 -36 -61 -33 -64 12 -12 649 -302 655 -299
4 3 54 104 111 225 l105 221 255 2 255 3 187 230 c103 127 187 235 187 241 1
6 -51 61 -114 123 -63 61 -115 113 -115 115 0 3 26 10 58 16 150 30 258 74
357 145 73 52 70 54 80 -65 11 -133 1 -121 133 -168 279 -100 473 -128 697
-101 318 39 536 211 590 466 36 167 3 369 -80 508 -19 32 -35 61 -35 65 0 4
254 207 565 450 560 438 565 442 542 459 -12 10 -268 189 -569 400 -515 358
-548 384 -548 411 0 17 4 30 9 30 5 0 116 -74 246 -165 l237 -165 71 65 c47
43 83 67 107 72 63 14 370 9 425 -6 81 -23 137 -56 189 -111 26 -28 53 -49 60
-47 6 3 47 34 91 69 169 138 348 346 479 558 67 108 190 339 184 345 -2 3 -40
-2 -84 -11 -116 -22 -427 -70 -600 -93 l-151 -19 -81 -66 c-128 -103 -415
-286 -448 -286 -5 0 -27 30 -49 66 -48 79 -149 177 -201 194 -22 8 -69 11
-118 8 -70 -4 -91 -9 -155 -43 -40 -21 -101 -60 -135 -87 l-61 -47 -9 30 c-11
35 -10 36 105 114 150 102 299 127 413 71 66 -32 169 -129 201 -189 11 -20 24
-37 30 -37 16 0 184 101 278 167 113 80 265 212 368 320 340 358 617 838 863
1495 36 97 66 181 66 187 0 47 -177 -132 -375 -379 -195 -243 -307 -362 -424
-448 -145 -108 -168 -118 -336 -142 -197 -28 -459 -81 -616 -124 -174 -48
-304 -97 -437 -167 -62 -32 -110 -53 -106 -46 4 6 25 37 46 68 122 180 197
408 218 667 17 202 27 196 -107 62 -199 -197 -447 -363 -818 -548 l-180 -90
-190 -6 c-104 -4 -232 -9 -282 -12 -69 -5 -93 -3 -93 6 0 6 64 78 143 158 79
81 158 168 175 194 34 50 75 138 68 145 -7 8 -151 -17 -245 -42 -258 -69 -457
-187 -630 -371 l-78 -84 -344 -6 -345 -7 -13 44 c-22 75 -80 168 -155 247 -74
78 -217 192 -242 192 -9 0 -14 -11 -14 -32 0 -38 -32 -258 -56 -389 l-16 -89
-229 0 c-208 0 -228 -1 -222 -16 5 -14 2 -16 -23 -10 -16 4 -34 13 -40 19 -6
7 -138 175 -292 374 l-282 361 -72 13 c-91 15 -105 15 -196 0 l-73 -13 -290
-372 -290 -372 -92 24 c-78 21 -118 25 -257 27 l-165 2 -22 124 c-12 68 -27
175 -34 237 -9 74 -17 112 -25 112 -23 0 -169 -117 -240 -191 -122 -129 -174
-244 -180 -397 l-4 -93 -51 -40 c-28 -23 -52 -39 -54 -37 -2 2 2 62 9 133 7
72 10 133 7 136 -3 4 -135 9 -293 11 l-287 4 -80 86 c-175 186 -373 303 -632
373 -94 25 -238 50 -245 42 -7 -7 34 -95 68 -145 17 -26 95 -112 172 -192 167
-172 197 -220 204 -327 3 -40 1 -73 -4 -73 -5 0 -80 27 -166 61 l-157 62 -11
56 c-20 100 -3 91 -171 91 l-149 0 -178 89 c-349 175 -587 335 -779 526 -141
139 -130 145 -113 -57 21 -259 96 -487 218 -667 21 -31 42 -62 46 -68 4 -7
-44 14 -106 46 -133 70 -263 119 -437 167 -157 43 -419 96 -616 124 -168 24
-191 34 -336 142 -117 86 -229 205 -424 448 -198 247 -375 426 -375 379z
m3227 -1343 c1 0 54 -271 117 -601 64 -330 118 -604 120 -610 2 -5 138 259
302 588 l298 599 276 -8 c151 -3 277 -8 280 -11 3 -3 -101 -1162 -137 -1513
l-4 -45 135 -120 c75 -66 136 -124 136 -129 0 -5 -41 -6 -97 -3 -54 4 -216 7
-360 7 l-263 0 0 28 c0 15 34 319 75 677 41 357 73 650 71 652 -1 1 -146 -302
-320 -675 -175 -372 -321 -680 -325 -685 -4 -4 -81 -4 -172 -1 l-165 7 -124
683 c-69 376 -127 684 -130 684 -3 0 -56 -306 -119 -680 l-115 -680 -200 1
c-111 1 -304 4 -430 8 l-229 6 263 160 c149 91 266 169 271 180 5 11 70 344
144 740 75 396 139 728 142 739 5 17 18 18 281 11 153 -4 278 -8 279 -9z
m7563 -65 c19 -66 28 -209 14 -245 -4 -11 -19 -16 -53 -16 -25 0 -162 -5 -305
-12 l-258 -12 6 -58 c3 -32 13 -114 22 -183 l17 -125 310 -2 310 -3 18 -50
c18 -51 24 -176 13 -247 l-7 -38 -283 0 -284 0 0 -34 c0 -34 26 -297 35 -351
l5 -30 333 3 332 4 240 -152 c132 -83 265 -168 295 -188 l55 -37 -810 -11
c-445 -6 -811 -10 -813 -8 -7 4 -256 1814 -250 1819 4 4 768 38 985 44 l52 1
21 -69z m-4965 10 c255 -65 456 -247 545 -490 120 -329 49 -747 -175 -1028
-185 -232 -488 -347 -800 -303 -341 49 -574 218 -672 487 -45 124 -56 198 -56
368 -1 141 3 171 25 256 53 197 132 340 254 462 143 143 324 233 540 267 86
13 247 4 339 -19z m3215 22 c1 -5 31 -334 68 -733 l68 -725 347 1 c191 0 347
-2 347 -5 0 -3 9 -82 19 -176 11 -93 16 -173 13 -176 -4 -4 -255 -10 -559 -14
l-552 -7 -5 24 c-4 19 -166 1776 -166 1800 0 4 87 9 193 11 105 1 200 3 210 5
9 1 17 -1 17 -5z m-559 -150 l-58 -118 39 -604 40 -605 89 -168 c49 -92 89
-172 89 -178 0 -7 -124 -10 -370 -10 l-369 0 33 73 c19 39 52 110 74 157 l39
85 -43 618 -44 618 -65 118 c-36 65 -65 121 -65 125 0 3 151 6 335 6 l335 0
-59 -117z m-1009 88 c42 -11 100 -32 129 -46 71 -36 154 -122 187 -192 24 -51
27 -70 27 -158 0 -89 -3 -106 -28 -157 -38 -77 -102 -146 -175 -188 -34 -19
-62 -38 -62 -41 0 -4 15 -10 34 -13 105 -20 254 -133 310 -235 97 -178 67
-375 -81 -531 -78 -83 -180 -140 -321 -177 -94 -26 -105 -27 -372 -25 -151 0
-337 4 -412 8 l-138 6 0 884 0 884 413 0 c376 0 421 -2 489 -19z m-4355 -1865
c1 0 -34 -52 -77 -113 l-79 -113 -86 -551 c-47 -303 -85 -556 -85 -561 0 -7
97 -8 300 -3 l300 7 0 -23 c-1 -45 -38 -310 -44 -317 -8 -7 -996 -35 -1003
-28 -3 3 193 1248 223 1411 5 30 0 35 -170 164 -97 73 -176 136 -176 138 0 4
891 -7 897 -11z m2506 -52 l107 -17 -1 -101 c-1 -55 -4 -131 -8 -168 l-6 -67
-52 35 c-81 54 -153 76 -273 81 -172 9 -291 -32 -404 -138 -69 -64 -118 -149
-137 -239 -18 -83 -7 -272 20 -341 41 -108 126 -175 249 -200 68 -13 278 -7
293 8 5 5 12 71 16 146 l6 138 -141 -7 -142 -7 0 157 0 156 310 0 310 0 0 -52
c0 -29 -7 -197 -15 -373 -8 -176 -15 -325 -15 -332 0 -15 -132 -66 -253 -98
-188 -51 -380 -54 -552 -10 -216 55 -367 216 -426 455 -18 72 -21 104 -16 220
5 152 24 226 85 345 53 103 228 275 337 332 91 47 191 80 286 93 88 12 292 5
422 -16z m-1420 0 l287 -7 0 -25 c0 -29 -19 -195 -26 -230 l-5 -23 -253 7
-253 7 -6 -24 c-3 -13 -9 -78 -12 -145 l-7 -121 223 -7 c122 -3 224 -8 226
-10 2 -2 -3 -59 -12 -127 -8 -68 -15 -127 -15 -131 0 -4 -108 -8 -240 -8
l-240 0 -1 -27 c0 -16 -6 -85 -13 -155 l-12 -128 274 0 c256 0 273 -1 268 -17
-3 -10 -8 -77 -12 -149 l-6 -131 -307 -6 c-168 -4 -372 -7 -453 -7 -142 0
-148 1 -148 20 0 28 190 1431 196 1449 3 11 28 12 132 7 70 -3 256 -9 415 -12z
m2274 -4 l333 0 0 -67 c0 -38 -3 -92 -6 -120 l-7 -53 -243 0 -243 0 -3 -152
c-2 -84 -2 -156 0 -160 2 -5 106 -8 233 -8 l229 0 0 -37 c0 -21 -3 -82 -7
-135 l-6 -98 -228 0 -228 0 -3 -147 c-2 -82 -2 -151 0 -155 2 -5 124 -8 273
-8 l269 0 0 -143 0 -144 -446 -7 c-246 -4 -448 -6 -449 -4 -3 3 41 1438 44
1447 0 2 35 1 78 -3 42 -3 226 -6 410 -6z m703 0 l145 0 329 -466 c182 -256
332 -467 336 -469 3 -2 4 13 3 33 -2 21 -14 206 -28 412 -13 206 -27 401 -30
433 l-6 57 156 0 c117 0 155 -3 155 -12 1 -7 23 -326 49 -708 27 -382 45 -698
42 -703 -4 -4 -83 -6 -176 -5 l-169 3 -334 475 c-183 261 -340 484 -348 495
-16 21 -15 -95 3 -727 l6 -228 -90 0 c-49 0 -124 3 -166 6 l-77 7 0 697 c0
383 3 700 7 704 4 4 17 5 28 2 11 -3 85 -6 165 -6z m4095 2 c-9 -8 -308 -250
-431 -349 l-41 -33 -32 29 c-66 62 -170 91 -325 91 -113 0 -161 -13 -203 -55
-44 -44 -45 -95 -4 -152 36 -50 64 -67 226 -138 326 -144 464 -257 527 -434
16 -42 21 -83 22 -166 1 -106 0 -113 -32 -177 -72 -147 -211 -218 -457 -233
-123 -8 -254 10 -410 57 l-110 33 -17 155 c-9 85 -17 169 -17 187 l-1 32 56
-39 c139 -97 373 -154 497 -119 52 14 114 72 127 117 25 91 -29 153 -192 222
-162 68 -347 164 -414 213 -105 77 -152 147 -185 274 -46 182 -9 330 104 410
41 29 136 68 187 76 51 8 1134 7 1125 -1z m-2000 -30 c211 -57 356 -171 438
-343 65 -135 78 -197 84 -384 6 -188 -8 -272 -61 -380 -83 -168 -219 -256
-450 -291 -81 -12 -151 -14 -356 -8 -140 3 -275 9 -300 13 l-45 6 -51 650
c-29 358 -54 676 -57 708 l-5 59 361 -4 c332 -4 369 -6 442 -26z m-33 -1719
l147 -148 -142 -177 -142 -178 -2499 3 -2500 2 -142 175 -142 175 146 148 147
147 2490 0 2490 0 147 -147z"/>
<path d="M6303 7245 c-255 -79 -439 -486 -379 -835 61 -353 341 -511 646 -364
134 64 235 197 282 371 29 111 30 335 0 444 -53 196 -168 332 -319 379 -74 23
-167 25 -230 5z"/>
<path d="M7830 7054 l0 -226 133 4 c109 3 139 8 172 25 81 42 106 89 107 198
1 102 -36 158 -127 193 -40 16 -156 32 -227 32 l-58 0 0 -226z"/>
<path d="M7840 6265 l0 -265 133 0 c89 0 150 5 184 15 198 59 246 289 89 433
-74 67 -126 82 -282 82 l-124 0 0 -265z"/>
<path d="M9695 5313 c-20 -4 -20 -7 17 -436 20 -238 37 -438 38 -444 0 -22
202 -17 295 7 140 36 215 104 251 225 22 77 15 240 -15 336 -55 175 -206 283
-432 309 -85 10 -117 11 -154 3z"/>
<path d="M4881 3786 l-113 -114 113 -141 113 -141 2462 0 2462 0 98 122 c55
67 105 131 113 141 12 18 4 29 -100 133 l-114 114 -2460 0 -2460 0 -114 -114z
m1484 -6 c4 -6 1 -17 -5 -26 -10 -11 -16 -12 -26 -3 -11 9 -11 15 -3 25 14 17
25 18 34 4z m2815 -52 c0 -48 3 -59 12 -50 21 21 75 15 92 -10 23 -32 20 -100
-4 -131 -27 -34 -81 -45 -115 -23 -24 16 -25 20 -25 131 0 85 -3 115 -12 115
-13 1 30 29 45 30 4 0 7 -28 7 -62z m207 46 c9 -23 -11 -38 -26 -20 -13 16 -7
36 10 36 5 0 12 -7 16 -16z m113 -114 c0 -112 2 -130 18 -139 13 -8 6 -10 -33
-10 -39 0 -46 2 -32 10 14 9 17 26 17 120 0 92 -3 111 -16 116 -14 5 -12 8 7
19 13 7 27 13 32 14 4 0 7 -58 7 -130z m-4142 103 c-2 -13 -16 -19 -48 -23
-53 -6 -68 -33 -25 -44 41 -10 75 -53 75 -93 0 -59 -86 -123 -129 -96 -20 13
-21 39 -1 34 8 -3 31 -5 50 -5 29 -1 36 3 44 27 14 40 -9 77 -59 96 -22 8 -41
16 -43 17 -2 1 8 25 22 53 26 50 27 51 72 51 38 0 45 -3 42 -17z m400 0 c-2
-13 -16 -19 -48 -23 -58 -6 -65 -31 -15 -49 87 -31 84 -144 -4 -181 -39 -16
-84 -6 -79 18 2 9 11 15 19 13 8 -3 30 -5 49 -5 29 -1 36 3 44 27 14 40 -9 77
-59 96 -22 8 -41 16 -43 17 -2 1 8 25 22 53 26 50 27 51 72 51 38 0 45 -3 42
-17z m336 -9 c9 -35 2 -40 -23 -15 -14 14 -34 21 -61 21 l-40 0 0 -50 0 -50
35 0 c22 0 38 6 44 18 8 13 10 6 10 -33 0 -27 -3 -43 -6 -35 -8 21 -24 30 -55
30 -27 0 -28 -2 -28 -55 0 -48 3 -57 23 -65 16 -7 7 -9 -38 -8 -33 0 -52 2
-42 5 15 4 17 19 17 124 0 99 -3 119 -15 119 -8 0 -15 5 -15 10 0 6 38 10 94
10 93 0 94 0 100 -26z m664 -74 c25 -55 49 -100 52 -100 3 0 20 35 39 78 47
110 57 122 91 122 34 0 48 -16 20 -23 -18 -5 -20 -14 -20 -116 0 -106 1 -112
23 -121 16 -7 7 -9 -38 -8 -33 0 -52 2 -42 5 15 4 17 17 16 101 l0 97 -39 -82
c-21 -46 -41 -92 -45 -103 -3 -11 -10 -20 -14 -20 -5 0 -30 46 -57 103 l-49
102 -3 -65 c-4 -84 4 -128 26 -133 9 -3 -5 -5 -33 -5 -27 0 -42 2 -32 5 15 4
17 19 17 124 0 99 -3 119 -15 119 -8 0 -15 5 -15 10 0 6 16 10 36 10 35 0 36
-1 82 -100z m433 85 c91 -48 91 -197 -2 -247 -89 -48 -189 15 -189 120 0 108
100 174 191 127z m284 -9 c35 -23 43 -63 17 -88 l-21 -21 25 -19 c33 -27 32
-70 -2 -97 -23 -18 -40 -21 -123 -20 -68 0 -89 3 -73 9 21 9 22 15 22 121 0
102 -2 111 -20 116 -11 3 -17 10 -13 15 9 16 159 3 188 -16z m270 -109 c26
-65 55 -122 64 -127 11 -7 0 -9 -39 -9 -30 0 -49 3 -42 6 13 5 16 31 6 57 -5
12 -20 16 -60 16 -49 0 -55 -2 -64 -26 -14 -35 -13 -42 8 -47 9 -3 -5 -5 -32
-6 -47 -1 -48 -1 -27 17 18 15 36 52 107 221 8 20 18 31 23 25 4 -5 29 -62 56
-127z m365 103 l0 -30 -20 20 c-13 13 -33 20 -60 20 l-40 0 0 -50 0 -50 35 0
c22 0 38 6 44 18 8 13 10 6 11 -33 0 -48 -1 -49 -16 -27 -10 14 -25 22 -45 22
-29 0 -29 -1 -29 -55 0 -48 3 -57 23 -65 16 -6 6 -9 -43 -9 -49 0 -59 3 -42 9
21 9 22 14 22 125 0 96 -3 115 -15 115 -8 0 -15 5 -15 10 0 6 38 10 95 10 l95
0 0 -30z m578 -70 c25 -55 49 -100 52 -100 3 0 20 35 39 78 47 110 57 122 91
122 34 0 48 -16 20 -23 -18 -5 -20 -14 -20 -116 0 -106 1 -112 23 -121 16 -7
7 -9 -38 -8 -33 0 -52 2 -42 5 15 4 17 17 16 101 l0 97 -39 -82 c-21 -46 -41
-92 -45 -103 -3 -11 -10 -20 -14 -20 -5 0 -30 46 -57 103 l-49 102 -3 -75 c-4
-89 2 -117 26 -123 9 -3 -5 -5 -33 -5 -27 0 -42 2 -32 5 15 4 17 19 17 124 0
99 -3 119 -15 119 -8 0 -15 5 -15 10 0 6 16 10 36 10 35 0 36 -1 82 -100z
m-3215 3 c-18 -7 -16 -23 8 -79 l22 -48 22 55 c15 37 19 58 12 67 -7 9 -2 12
22 12 28 0 31 -2 18 -14 -8 -8 -29 -51 -47 -96 -18 -45 -36 -78 -41 -73 -4 4
-22 42 -39 83 -18 41 -39 81 -48 88 -13 10 -8 12 34 11 27 0 43 -3 37 -6z
m775 -5 c7 -7 12 -40 12 -80 0 -60 2 -67 18 -62 12 4 10 -1 -7 -16 -21 -18
-26 -19 -39 -6 -13 13 -18 13 -38 -1 -29 -19 -50 -12 -66 21 -14 31 -1 49 54
77 30 15 39 25 36 42 -4 32 -36 34 -48 3 -10 -27 -40 -36 -40 -12 0 39 88 64
118 34z m112 -62 c0 -54 4 -79 16 -90 14 -15 11 -16 -33 -16 -37 1 -44 3 -30
11 13 8 17 24 17 74 0 55 -3 65 -17 65 -16 1 -16 2 1 15 39 29 46 20 46 -59z
m110 64 c0 -6 7 -6 19 1 22 14 55 5 48 -14 -2 -6 -17 -12 -33 -12 -29 0 -29 0
-32 -67 -2 -57 0 -67 15 -71 10 -3 -7 -5 -37 -5 -30 0 -47 2 -37 5 14 4 17 16
17 74 0 59 -3 69 -17 69 -16 1 -16 2 1 15 23 17 56 20 56 5z m1818 -12 c31
-34 36 -71 17 -111 -31 -66 -109 -74 -146 -14 -25 39 -20 89 12 123 30 32 87
33 117 2z m112 12 c0 -6 7 -6 19 1 23 15 53 5 45 -15 -3 -8 -17 -14 -32 -13
-26 2 -27 0 -30 -62 -2 -45 1 -67 10 -72 8 -5 -7 -8 -37 -8 -27 1 -42 3 -32 6
14 4 17 16 17 74 0 59 -3 69 -17 69 -16 1 -16 2 1 15 23 17 56 20 56 5z m679
-16 c32 -41 28 -98 -8 -135 -18 -17 -40 -29 -56 -29 -38 0 -85 50 -85 90 0 35
23 86 42 93 7 3 30 6 50 6 28 1 41 -5 57 -25z m311 -54 c0 -65 3 -81 18 -89
13 -8 6 -10 -31 -11 -44 0 -47 1 -33 16 21 20 21 107 1 128 -19 19 -19 24 3
29 41 11 42 9 42 -73z m292 63 c10 -9 18 -24 18 -35 0 -15 -8 -18 -60 -18 -63
0 -68 -5 -49 -43 23 -43 68 -50 93 -15 14 19 16 20 16 5 0 -25 -45 -67 -70
-67 -12 0 -35 14 -52 30 -28 28 -30 36 -25 78 3 31 12 52 27 64 28 23 78 23
102 1z"/>
<path d="M9187 3653 c-4 -3 -7 -32 -7 -64 0 -55 2 -59 26 -65 17 -4 31 -1 41
9 20 19 22 89 4 111 -14 16 -52 22 -64 9z"/>
<path d="M7074 3739 c-26 -29 -32 -135 -10 -177 28 -54 103 -56 131 -2 22 42
19 128 -5 168 -17 27 -25 32 -58 32 -27 0 -45 -7 -58 -21z"/>
<path d="M7360 3710 c0 -57 10 -66 61 -53 28 8 35 14 37 40 4 37 -26 63 -70
63 -27 0 -28 -2 -28 -50z"/>
<path d="M7360 3586 c0 -59 14 -71 67 -57 56 15 57 81 2 100 -62 21 -69 17
-69 -43z"/>
<path d="M7668 3699 c-4 -7 -13 -31 -22 -51 l-16 -38 40 0 c45 0 47 6 21 64
-12 27 -19 35 -23 25z"/>
<path d="M6182 3594 c-38 -27 -25 -73 18 -59 15 5 20 15 20 41 0 38 -6 41 -38
18z"/>
<path d="M8196 3658 c-30 -42 -11 -124 31 -134 35 -9 48 9 47 66 -1 77 -45
115 -78 68z"/>
<path d="M8986 3664 c-32 -31 -12 -135 27 -142 31 -6 47 17 47 67 0 74 -38
112 -74 75z"/>
<path d="M9597 3662 c-25 -27 -21 -32 23 -32 44 0 55 21 21 40 -25 13 -25 13
-44 -8z"/>
</g>
</svg>
